<svg width="224" height="74" viewBox="0 0 224 74" fill="none" xmlns="http://www.w3.org/2000/svg">
<rect x="-0.19297" y="-0.00784423" width="9.43858" height="2.14884" rx="1.07442" transform="matrix(-0.793972 0.607955 -0.742007 -0.670392 45.7451 25.5769)" fill="#DA7B14" stroke="white" stroke-width="0.251266"/>
<rect x="-0.0131298" y="-0.160378" width="9.51031" height="2.13039" rx="1.0652" transform="matrix(-0.817724 -0.575611 0.713214 -0.700946 50.4436 30.8715)" fill="#DA7B14" stroke="white" stroke-width="0.251266"/>
<rect x="-0.123582" y="0.127303" width="33.8404" height="7.80831" rx="3.90415" transform="matrix(0.0162357 0.999868 -0.99991 0.0134277 39.0644 25.4762)" fill="white" stroke="white" stroke-width="0.251266"/>
<rect x="-0.123582" y="0.127303" width="33.8404" height="7.80831" rx="3.90415" transform="matrix(0.0162357 0.999868 -0.99991 0.0134277 18.2594 25.4762)" fill="white" stroke="white" stroke-width="0.251266"/>
<rect x="-0.123582" y="0.127303" width="16.7946" height="4.01673" rx="2.00836" transform="matrix(0.0162357 0.999868 -0.99991 0.0134277 26.6514 33.4879)" fill="#DA7B14" stroke="white" stroke-width="0.251266"/>
<rect x="67.6116" y="59.8744" width="55.9794" height="7.07828" rx="3.53914" transform="rotate(-180 67.6116 59.8744)" fill="white" stroke="white" stroke-width="0.251266"/>
<rect x="-0.185708" y="-0.00764272" width="30.5042" height="7.42187" rx="3.71093" transform="matrix(-0.766761 0.641932 -0.711421 -0.702766 29.1553 5.49878)" fill="white" stroke="white" stroke-width="0.251266"/>
<rect x="-0.013972" y="-0.168594" width="30.6236" height="7.39149" rx="3.69575" transform="matrix(-0.792469 -0.609913 0.681256 -0.732045 42.6236 24.1252)" fill="white" stroke="white" stroke-width="0.251266"/>
<path d="M68.8689 33.48C68.8689 34.8933 68.5356 36.2267 67.8689 37.48C67.2022 38.7333 66.1356 39.76 64.6689 40.56C63.2022 41.3333 61.3222 41.72 59.0289 41.72H53.9889V53H49.4289V25.2H59.0289C61.1622 25.2 62.9622 25.5733 64.4289 26.32C65.9222 27.04 67.0289 28.0267 67.7489 29.28C68.4956 30.5333 68.8689 31.9333 68.8689 33.48ZM59.0289 38C60.7622 38 62.0556 37.6133 62.9089 36.84C63.7622 36.04 64.1889 34.92 64.1889 33.48C64.1889 30.44 62.4689 28.92 59.0289 28.92H53.9889V38H59.0289ZM77.778 28.88V37.04H87.378V40.76H77.778V49.28H88.578V53H73.218V25.16H88.578V28.88H77.778ZM98.7545 28.88V37.04H108.355V40.76H98.7545V49.28H109.555V53H94.1945V25.16H109.555V28.88H98.7545ZM144.451 25.2V53H139.891V33.96L131.411 53H128.251L119.731 33.96V53H115.171V25.2H120.091L129.851 47L139.571 25.2H144.451ZM167.205 47.32H155.565L153.565 53H148.805L158.765 25.16H164.045L174.005 53H169.205L167.205 47.32ZM165.925 43.6L161.405 30.68L156.845 43.6H165.925ZM201.175 53H196.615L182.895 32.24V53H178.335V25.16H182.895L196.615 45.88V25.16H201.175V53Z" fill="#DA7B14"/>
<path d="M16.1513 65.12C16.1513 65.4733 16.0679 65.8067 15.9013 66.12C15.7346 66.4333 15.4679 66.69 15.1013 66.89C14.7346 67.0833 14.2646 67.18 13.6913 67.18H12.4313V70H11.2913V63.05H13.6913C14.2246 63.05 14.6746 63.1433 15.0413 63.33C15.4146 63.51 15.6913 63.7567 15.8713 64.07C16.0579 64.3833 16.1513 64.7333 16.1513 65.12ZM13.6913 66.25C14.1246 66.25 14.4479 66.1533 14.6613 65.96C14.8746 65.76 14.9813 65.48 14.9813 65.12C14.9813 64.36 14.5513 63.98 13.6913 63.98H12.4313V66.25H13.6913ZM18.6785 65.29C18.8452 65.01 19.0652 64.7933 19.3385 64.64C19.6185 64.48 19.9485 64.4 20.3285 64.4V65.58H20.0385C19.5919 65.58 19.2519 65.6933 19.0185 65.92C18.7919 66.1467 18.6785 66.54 18.6785 67.1V70H17.5385V64.49H18.6785V65.29ZM24.0664 70.09C23.5464 70.09 23.0764 69.9733 22.6564 69.74C22.2364 69.5 21.9064 69.1667 21.6664 68.74C21.4264 68.3067 21.3064 67.8067 21.3064 67.24C21.3064 66.68 21.4297 66.1833 21.6764 65.75C21.9231 65.3167 22.2597 64.9833 22.6864 64.75C23.1131 64.5167 23.5897 64.4 24.1164 64.4C24.6431 64.4 25.1197 64.5167 25.5464 64.75C25.9731 64.9833 26.3097 65.3167 26.5564 65.75C26.8031 66.1833 26.9264 66.68 26.9264 67.24C26.9264 67.8 26.7998 68.2967 26.5464 68.73C26.2931 69.1633 25.9464 69.5 25.5064 69.74C25.0731 69.9733 24.5931 70.09 24.0664 70.09ZM24.0664 69.1C24.3597 69.1 24.6331 69.03 24.8864 68.89C25.1464 68.75 25.3564 68.54 25.5164 68.26C25.6764 67.98 25.7564 67.64 25.7564 67.24C25.7564 66.84 25.6797 66.5033 25.5264 66.23C25.3731 65.95 25.1697 65.74 24.9164 65.6C24.6631 65.46 24.3897 65.39 24.0964 65.39C23.8031 65.39 23.5297 65.46 23.2764 65.6C23.0297 65.74 22.8331 65.95 22.6864 66.23C22.5397 66.5033 22.4664 66.84 22.4664 67.24C22.4664 67.8333 22.6164 68.2933 22.9164 68.62C23.2231 68.94 23.6064 69.1 24.0664 69.1ZM29.4934 65.3C29.6867 65.0467 29.95 64.8333 30.2834 64.66C30.6167 64.4867 30.9934 64.4 31.4134 64.4C31.8934 64.4 32.33 64.52 32.7234 64.76C33.1234 64.9933 33.4367 65.3233 33.6634 65.75C33.89 66.1767 34.0034 66.6667 34.0034 67.22C34.0034 67.7733 33.89 68.27 33.6634 68.71C33.4367 69.1433 33.1234 69.4833 32.7234 69.73C32.33 69.97 31.8934 70.09 31.4134 70.09C30.9934 70.09 30.62 70.0067 30.2934 69.84C29.9667 69.6667 29.7 69.4533 29.4934 69.2V72.62H28.3534V64.49H29.4934V65.3ZM32.8434 67.22C32.8434 66.84 32.7634 66.5133 32.6034 66.24C32.45 65.96 32.2434 65.75 31.9834 65.61C31.73 65.4633 31.4567 65.39 31.1634 65.39C30.8767 65.39 30.6034 65.4633 30.3434 65.61C30.09 65.7567 29.8834 65.97 29.7234 66.25C29.57 66.53 29.4934 66.86 29.4934 67.24C29.4934 67.62 29.57 67.9533 29.7234 68.24C29.8834 68.52 30.09 68.7333 30.3434 68.88C30.6034 69.0267 30.8767 69.1 31.1634 69.1C31.4567 69.1 31.73 69.0267 31.9834 68.88C32.2434 68.7267 32.45 68.5067 32.6034 68.22C32.7634 67.9333 32.8434 67.6 32.8434 67.22ZM40.4807 67.11C40.4807 67.3167 40.4674 67.5033 40.4407 67.67H36.2307C36.264 68.11 36.4274 68.4633 36.7207 68.73C37.014 68.9967 37.374 69.13 37.8007 69.13C38.414 69.13 38.8474 68.8733 39.1007 68.36H40.3307C40.164 68.8667 39.8607 69.2833 39.4207 69.61C38.9874 69.93 38.4474 70.09 37.8007 70.09C37.274 70.09 36.8007 69.9733 36.3807 69.74C35.9674 69.5 35.6407 69.1667 35.4007 68.74C35.1674 68.3067 35.0507 67.8067 35.0507 67.24C35.0507 66.6733 35.164 66.1767 35.3907 65.75C35.624 65.3167 35.9474 64.9833 36.3607 64.75C36.7807 64.5167 37.2607 64.4 37.8007 64.4C38.3207 64.4 38.784 64.5133 39.1907 64.74C39.5974 64.9667 39.914 65.2867 40.1407 65.7C40.3674 66.1067 40.4807 66.5767 40.4807 67.11ZM39.2907 66.75C39.284 66.33 39.134 65.9933 38.8407 65.74C38.5474 65.4867 38.184 65.36 37.7507 65.36C37.3574 65.36 37.0207 65.4867 36.7407 65.74C36.4607 65.9867 36.294 66.3233 36.2407 66.75H39.2907ZM43.0426 65.29C43.2093 65.01 43.4293 64.7933 43.7026 64.64C43.9826 64.48 44.3126 64.4 44.6926 64.4V65.58H44.4026C43.9559 65.58 43.6159 65.6933 43.3826 65.92C43.1559 66.1467 43.0426 66.54 43.0426 67.1V70H41.9026V64.49H43.0426V65.29ZM47.3705 65.42V68.47C47.3705 68.6767 47.4171 68.8267 47.5105 68.92C47.6105 69.0067 47.7771 69.05 48.0105 69.05H48.7105V70H47.8105C47.2971 70 46.9038 69.88 46.6305 69.64C46.3571 69.4 46.2205 69.01 46.2205 68.47V65.42H45.5705V64.49H46.2205V63.12H47.3705V64.49H48.7105V65.42H47.3705ZM55.0212 64.49L51.6412 72.59H50.4612L51.5812 69.91L49.4112 64.49H50.6812L52.2312 68.69L53.8412 64.49H55.0212ZM60.2192 63.05V70H59.0792V63.05H60.2192ZM64.7959 64.4C65.2292 64.4 65.6159 64.49 65.9559 64.67C66.3025 64.85 66.5725 65.1167 66.7659 65.47C66.9592 65.8233 67.0559 66.25 67.0559 66.75V70H65.9259V66.92C65.9259 66.4267 65.8025 66.05 65.5559 65.79C65.3092 65.5233 64.9725 65.39 64.5459 65.39C64.1192 65.39 63.7792 65.5233 63.5259 65.79C63.2792 66.05 63.1559 66.4267 63.1559 66.92V70H62.0159V64.49H63.1559V65.12C63.3425 64.8933 63.5792 64.7167 63.8659 64.59C64.1592 64.4633 64.4692 64.4 64.7959 64.4ZM70.94 68.98L72.5 64.49H73.71L71.61 70H70.25L68.16 64.49H69.38L70.94 68.98ZM79.9217 67.11C79.9217 67.3167 79.9084 67.5033 79.8817 67.67H75.6717C75.7051 68.11 75.8684 68.4633 76.1617 68.73C76.4551 68.9967 76.8151 69.13 77.2417 69.13C77.8551 69.13 78.2884 68.8733 78.5417 68.36H79.7717C79.6051 68.8667 79.3017 69.2833 78.8617 69.61C78.4284 69.93 77.8884 70.09 77.2417 70.09C76.7151 70.09 76.2417 69.9733 75.8217 69.74C75.4084 69.5 75.0817 69.1667 74.8417 68.74C74.6084 68.3067 74.4917 67.8067 74.4917 67.24C74.4917 66.6733 74.6051 66.1767 74.8317 65.75C75.0651 65.3167 75.3884 64.9833 75.8017 64.75C76.2217 64.5167 76.7017 64.4 77.2417 64.4C77.7617 64.4 78.2251 64.5133 78.6317 64.74C79.0384 64.9667 79.3551 65.2867 79.5817 65.7C79.8084 66.1067 79.9217 66.5767 79.9217 67.11ZM78.7317 66.75C78.7251 66.33 78.5751 65.9933 78.2817 65.74C77.9884 65.4867 77.6251 65.36 77.1917 65.36C76.7984 65.36 76.4617 65.4867 76.1817 65.74C75.9017 65.9867 75.7351 66.3233 75.6817 66.75H78.7317ZM83.3436 70.09C82.9103 70.09 82.5203 70.0133 82.1736 69.86C81.8336 69.7 81.5636 69.4867 81.3636 69.22C81.1636 68.9467 81.0569 68.6433 81.0436 68.31H82.2236C82.2436 68.5433 82.3536 68.74 82.5536 68.9C82.7603 69.0533 83.0169 69.13 83.3236 69.13C83.6436 69.13 83.8903 69.07 84.0636 68.95C84.2436 68.8233 84.3336 68.6633 84.3336 68.47C84.3336 68.2633 84.2336 68.11 84.0336 68.01C83.8403 67.91 83.5303 67.8 83.1036 67.68C82.6903 67.5667 82.3536 67.4567 82.0936 67.35C81.8336 67.2433 81.6069 67.08 81.4136 66.86C81.2269 66.64 81.1336 66.35 81.1336 65.99C81.1336 65.6967 81.2203 65.43 81.3936 65.19C81.5669 64.9433 81.8136 64.75 82.1336 64.61C82.4603 64.47 82.8336 64.4 83.2536 64.4C83.8803 64.4 84.3836 64.56 84.7636 64.88C85.1503 65.1933 85.3569 65.6233 85.3836 66.17H84.2436C84.2236 65.9233 84.1236 65.7267 83.9436 65.58C83.7636 65.4333 83.5203 65.36 83.2136 65.36C82.9136 65.36 82.6836 65.4167 82.5236 65.53C82.3636 65.6433 82.2836 65.7933 82.2836 65.98C82.2836 66.1267 82.3369 66.25 82.4436 66.35C82.5503 66.45 82.6803 66.53 82.8336 66.59C82.9869 66.6433 83.2136 66.7133 83.5136 66.8C83.9136 66.9067 84.2403 67.0167 84.4936 67.13C84.7536 67.2367 84.9769 67.3967 85.1636 67.61C85.3503 67.8233 85.4469 68.1067 85.4536 68.46C85.4536 68.7733 85.3669 69.0533 85.1936 69.3C85.0203 69.5467 84.7736 69.74 84.4536 69.88C84.1403 70.02 83.7703 70.09 83.3436 70.09ZM88.3154 65.42V68.47C88.3154 68.6767 88.3621 68.8267 88.4554 68.92C88.5554 69.0067 88.7221 69.05 88.9554 69.05H89.6554V70H88.7554C88.2421 70 87.8487 69.88 87.5754 69.64C87.3021 69.4 87.1654 69.01 87.1654 68.47V65.42H86.5154V64.49H87.1654V63.12H88.3154V64.49H89.6554V65.42H88.3154ZM97.6761 64.4C98.1094 64.4 98.4961 64.49 98.8361 64.67C99.1828 64.85 99.4528 65.1167 99.6461 65.47C99.8461 65.8233 99.9461 66.25 99.9461 66.75V70H98.8161V66.92C98.8161 66.4267 98.6928 66.05 98.4461 65.79C98.1994 65.5233 97.8628 65.39 97.4361 65.39C97.0094 65.39 96.6694 65.5233 96.4161 65.79C96.1694 66.05 96.0461 66.4267 96.0461 66.92V70H94.9161V66.92C94.9161 66.4267 94.7928 66.05 94.5461 65.79C94.2994 65.5233 93.9628 65.39 93.5361 65.39C93.1094 65.39 92.7694 65.5233 92.5161 65.79C92.2694 66.05 92.1461 66.4267 92.1461 66.92V70H91.0061V64.49H92.1461V65.12C92.3328 64.8933 92.5694 64.7167 92.8561 64.59C93.1428 64.4633 93.4494 64.4 93.7761 64.4C94.2161 64.4 94.6094 64.4933 94.9561 64.68C95.3028 64.8667 95.5694 65.1367 95.7561 65.49C95.9228 65.1567 96.1828 64.8933 96.5361 64.7C96.8894 64.5 97.2694 64.4 97.6761 64.4ZM106.747 67.11C106.747 67.3167 106.733 67.5033 106.707 67.67H102.497C102.53 68.11 102.693 68.4633 102.987 68.73C103.28 68.9967 103.64 69.13 104.067 69.13C104.68 69.13 105.113 68.8733 105.367 68.36H106.597C106.43 68.8667 106.127 69.2833 105.687 69.61C105.253 69.93 104.713 70.09 104.067 70.09C103.54 70.09 103.067 69.9733 102.647 69.74C102.233 69.5 101.907 69.1667 101.667 68.74C101.433 68.3067 101.317 67.8067 101.317 67.24C101.317 66.6733 101.43 66.1767 101.657 65.75C101.89 65.3167 102.213 64.9833 102.627 64.75C103.047 64.5167 103.527 64.4 104.067 64.4C104.587 64.4 105.05 64.5133 105.457 64.74C105.863 64.9667 106.18 65.2867 106.407 65.7C106.633 66.1067 106.747 66.5767 106.747 67.11ZM105.557 66.75C105.55 66.33 105.4 65.9933 105.107 65.74C104.813 65.4867 104.45 65.36 104.017 65.36C103.623 65.36 103.287 65.4867 103.007 65.74C102.727 65.9867 102.56 66.3233 102.507 66.75H105.557ZM110.949 64.4C111.382 64.4 111.769 64.49 112.109 64.67C112.455 64.85 112.725 65.1167 112.919 65.47C113.112 65.8233 113.209 66.25 113.209 66.75V70H112.079V66.92C112.079 66.4267 111.955 66.05 111.709 65.79C111.462 65.5233 111.125 65.39 110.699 65.39C110.272 65.39 109.932 65.5233 109.679 65.79C109.432 66.05 109.309 66.4267 109.309 66.92V70H108.169V64.49H109.309V65.12C109.495 64.8933 109.732 64.7167 110.019 64.59C110.312 64.4633 110.622 64.4 110.949 64.4ZM116.293 65.42V68.47C116.293 68.6767 116.339 68.8267 116.433 68.92C116.533 69.0067 116.699 69.05 116.933 69.05H117.633V70H116.733C116.219 70 115.826 69.88 115.553 69.64C115.279 69.4 115.143 69.01 115.143 68.47V65.42H114.493V64.49H115.143V63.12H116.293V64.49H117.633V65.42H116.293ZM127.251 70L126.391 69.14C126.058 69.4733 125.694 69.7233 125.301 69.89C124.908 70.05 124.468 70.13 123.981 70.13C123.488 70.13 123.051 70.0433 122.671 69.87C122.291 69.6967 121.998 69.45 121.791 69.13C121.584 68.8033 121.481 68.4267 121.481 68C121.481 67.52 121.618 67.0933 121.891 66.72C122.164 66.34 122.571 66.04 123.111 65.82C122.918 65.5867 122.781 65.37 122.701 65.17C122.621 64.9633 122.581 64.7367 122.581 64.49C122.581 64.1833 122.658 63.91 122.811 63.67C122.971 63.43 123.198 63.24 123.491 63.1C123.784 62.96 124.124 62.89 124.511 62.89C124.904 62.89 125.238 62.9667 125.511 63.12C125.791 63.2667 125.998 63.47 126.131 63.73C126.271 63.99 126.328 64.28 126.301 64.6H125.161C125.168 64.3533 125.108 64.1633 124.981 64.03C124.854 63.89 124.681 63.82 124.461 63.82C124.241 63.82 124.061 63.8867 123.921 64.02C123.788 64.1467 123.721 64.3033 123.721 64.49C123.721 64.67 123.771 64.85 123.871 65.03C123.978 65.2033 124.161 65.43 124.421 65.71L126.261 67.54L126.971 66.37H128.201L127.301 67.91L127.051 68.32L128.741 70H127.251ZM123.981 69.16C124.608 69.16 125.161 68.9033 125.641 68.39L123.801 66.54C123.014 66.8533 122.621 67.3267 122.621 67.96C122.621 68.3 122.748 68.5867 123.001 68.82C123.254 69.0467 123.581 69.16 123.981 69.16ZM133.826 69.08H136.176V70H132.686V63.05H133.826V69.08ZM142.48 67.11C142.48 67.3167 142.466 67.5033 142.44 67.67H138.23C138.263 68.11 138.426 68.4633 138.72 68.73C139.013 68.9967 139.373 69.13 139.8 69.13C140.413 69.13 140.846 68.8733 141.1 68.36H142.33C142.163 68.8667 141.86 69.2833 141.42 69.61C140.986 69.93 140.446 70.09 139.8 70.09C139.273 70.09 138.8 69.9733 138.38 69.74C137.966 69.5 137.64 69.1667 137.4 68.74C137.166 68.3067 137.05 67.8067 137.05 67.24C137.05 66.6733 137.163 66.1767 137.39 65.75C137.623 65.3167 137.946 64.9833 138.36 64.75C138.78 64.5167 139.26 64.4 139.8 64.4C140.32 64.4 140.783 64.5133 141.19 64.74C141.596 64.9667 141.913 65.2867 142.14 65.7C142.366 66.1067 142.48 66.5767 142.48 67.11ZM141.29 66.75C141.283 66.33 141.133 65.9933 140.84 65.74C140.546 65.4867 140.183 65.36 139.75 65.36C139.356 65.36 139.02 65.4867 138.74 65.74C138.46 65.9867 138.293 66.3233 138.24 66.75H141.29ZM145.231 65.42V68.47C145.231 68.6767 145.278 68.8267 145.371 68.92C145.471 69.0067 145.638 69.05 145.871 69.05H146.571V70H145.671C145.158 70 144.765 69.88 144.491 69.64C144.218 69.4 144.081 69.01 144.081 68.47V65.42H143.431V64.49H144.081V63.12H145.231V64.49H146.571V65.42H145.231ZM149.252 65.42V68.47C149.252 68.6767 149.299 68.8267 149.392 68.92C149.492 69.0067 149.659 69.05 149.892 69.05H150.592V70H149.692C149.179 70 148.785 69.88 148.512 69.64C148.239 69.4 148.102 69.01 148.102 68.47V65.42H147.452V64.49H148.102V63.12H149.252V64.49H150.592V65.42H149.252ZM152.523 63.76C152.316 63.76 152.143 63.69 152.003 63.55C151.863 63.41 151.793 63.2367 151.793 63.03C151.793 62.8233 151.863 62.65 152.003 62.51C152.143 62.37 152.316 62.3 152.523 62.3C152.723 62.3 152.893 62.37 153.033 62.51C153.173 62.65 153.243 62.8233 153.243 63.03C153.243 63.2367 153.173 63.41 153.033 63.55C152.893 63.69 152.723 63.76 152.523 63.76ZM153.083 64.49V70H151.943V64.49H153.083ZM157.66 64.4C158.093 64.4 158.48 64.49 158.82 64.67C159.166 64.85 159.436 65.1167 159.63 65.47C159.823 65.8233 159.92 66.25 159.92 66.75V70H158.79V66.92C158.79 66.4267 158.666 66.05 158.42 65.79C158.173 65.5233 157.836 65.39 157.41 65.39C156.983 65.39 156.643 65.5233 156.39 65.79C156.143 66.05 156.02 66.4267 156.02 66.92V70H154.88V64.49H156.02V65.12C156.206 64.8933 156.443 64.7167 156.73 64.59C157.023 64.4633 157.333 64.4 157.66 64.4ZM163.894 64.4C164.32 64.4 164.697 64.4867 165.024 64.66C165.357 64.8267 165.617 65.0367 165.804 65.29V64.49H166.954V70.09C166.954 70.5967 166.847 71.0467 166.634 71.44C166.42 71.84 166.11 72.1533 165.704 72.38C165.304 72.6067 164.824 72.72 164.264 72.72C163.517 72.72 162.897 72.5433 162.404 72.19C161.91 71.8433 161.63 71.37 161.564 70.77H162.694C162.78 71.0567 162.964 71.2867 163.244 71.46C163.53 71.64 163.87 71.73 164.264 71.73C164.724 71.73 165.094 71.59 165.374 71.31C165.66 71.03 165.804 70.6233 165.804 70.09V69.17C165.61 69.43 165.347 69.65 165.014 69.83C164.687 70.0033 164.314 70.09 163.894 70.09C163.414 70.09 162.974 69.97 162.574 69.73C162.18 69.4833 161.867 69.1433 161.634 68.71C161.407 68.27 161.294 67.7733 161.294 67.22C161.294 66.6667 161.407 66.1767 161.634 65.75C161.867 65.3233 162.18 64.9933 162.574 64.76C162.974 64.52 163.414 64.4 163.894 64.4ZM165.804 67.24C165.804 66.86 165.724 66.53 165.564 66.25C165.41 65.97 165.207 65.7567 164.954 65.61C164.7 65.4633 164.427 65.39 164.134 65.39C163.84 65.39 163.567 65.4633 163.314 65.61C163.06 65.75 162.854 65.96 162.694 66.24C162.54 66.5133 162.464 66.84 162.464 67.22C162.464 67.6 162.54 67.9333 162.694 68.22C162.854 68.5067 163.06 68.7267 163.314 68.88C163.574 69.0267 163.847 69.1 164.134 69.1C164.427 69.1 164.7 69.0267 164.954 68.88C165.207 68.7333 165.41 68.52 165.564 68.24C165.724 67.9533 165.804 67.62 165.804 67.24ZM170.751 70.09C170.318 70.09 169.928 70.0133 169.581 69.86C169.241 69.7 168.971 69.4867 168.771 69.22C168.571 68.9467 168.464 68.6433 168.451 68.31H169.631C169.651 68.5433 169.761 68.74 169.961 68.9C170.168 69.0533 170.424 69.13 170.731 69.13C171.051 69.13 171.298 69.07 171.471 68.95C171.651 68.8233 171.741 68.6633 171.741 68.47C171.741 68.2633 171.641 68.11 171.441 68.01C171.248 67.91 170.938 67.8 170.511 67.68C170.098 67.5667 169.761 67.4567 169.501 67.35C169.241 67.2433 169.014 67.08 168.821 66.86C168.634 66.64 168.541 66.35 168.541 65.99C168.541 65.6967 168.628 65.43 168.801 65.19C168.974 64.9433 169.221 64.75 169.541 64.61C169.868 64.47 170.241 64.4 170.661 64.4C171.288 64.4 171.791 64.56 172.171 64.88C172.558 65.1933 172.764 65.6233 172.791 66.17H171.651C171.631 65.9233 171.531 65.7267 171.351 65.58C171.171 65.4333 170.928 65.36 170.621 65.36C170.321 65.36 170.091 65.4167 169.931 65.53C169.771 65.6433 169.691 65.7933 169.691 65.98C169.691 66.1267 169.744 66.25 169.851 66.35C169.958 66.45 170.088 66.53 170.241 66.59C170.394 66.6433 170.621 66.7133 170.921 66.8C171.321 66.9067 171.648 67.0167 171.901 67.13C172.161 67.2367 172.384 67.3967 172.571 67.61C172.758 67.8233 172.854 68.1067 172.861 68.46C172.861 68.7733 172.774 69.0533 172.601 69.3C172.428 69.5467 172.181 69.74 171.861 69.88C171.548 70.02 171.178 70.09 170.751 70.09Z" fill="#DA7B14"/>
</svg>
